<svg width="16" height="16" viewBox="0 0 16 16" fill="none" xmlns="http://www.w3.org/2000/svg">
<path fill-rule="evenodd" clip-rule="evenodd" d="M7.95003 15.1C11.8436 15.1 15 11.9436 15 8.05C15 4.15639 11.8436 1 7.95003 1C4.05642 1 0.900024 4.15639 0.900024 8.05C0.900024 11.9436 4.05642 15.1 7.95003 15.1ZM8.54998 4.52502C8.54998 4.19365 8.28135 3.92502 7.94998 3.92502C7.61861 3.92502 7.34998 4.19365 7.34998 4.52502V8.05002C7.34998 8.20915 7.4132 8.36176 7.52572 8.47429L10.0183 10.9668C10.2526 11.2012 10.6325 11.2012 10.8668 10.9668C11.1011 10.7325 11.1011 10.3526 10.8668 10.1183L8.54998 7.80149V4.52502Z" fill="#F4D35E"/>
</svg>
