<svg width="25" height="25" viewBox="0 0 25 25" fill="none" xmlns="http://www.w3.org/2000/svg">
<g clip-path="url(#clip0_16_2238)">
<circle cx="12.5" cy="12.5" r="11.7" stroke="#EFF7FF" stroke-width="1.6"/>
<path fill-rule="evenodd" clip-rule="evenodd" d="M7.23013 8.20921C7.53697 7.93026 8.03446 7.93026 8.3413 8.20921L12.5 11.9898L16.6587 8.20921C16.9655 7.93026 17.463 7.93026 17.7699 8.20921C18.0767 8.48816 18.0767 8.94042 17.7699 9.21936L13.6112 13L17.7699 16.7806C18.0767 17.0596 18.0767 17.5118 17.7699 17.7908C17.463 18.0697 16.9655 18.0697 16.6587 17.7908L12.5 14.0102L8.3413 17.7908C8.03446 18.0697 7.53697 18.0697 7.23013 17.7908C6.92329 17.5118 6.92329 17.0596 7.23013 16.7806L11.3888 13L7.23013 9.21936C6.92329 8.94042 6.92329 8.48816 7.23013 8.20921Z" fill="#EFF7FF"/>
</g>
<defs>
<clipPath id="clip0_16_2238">
<rect width="25" height="25" fill="white"/>
</clipPath>
</defs>
</svg>
