<svg width="16" height="20" viewBox="0 0 16 20" fill="none" xmlns="http://www.w3.org/2000/svg">
<path fill-rule="evenodd" clip-rule="evenodd" d="M15.019 1.03965C15.2796 1.18319 15.4298 1.47407 15.4071 1.79101L14.2001 18.6303C14.177 18.9531 13.9786 19.2459 13.6903 19.3828C13.4021 19.5197 13.0753 19.4762 12.8506 19.2711L7.61104 14.4865L0.76708 12.6141C0.473636 12.5338 0.262276 12.2809 0.223937 11.9641C0.185596 11.6472 0.327115 11.3231 0.587605 11.131L14.1766 1.11309C14.4323 0.924542 14.7585 0.896111 15.019 1.03965ZM9.04965 13.5028L12.728 16.8617L13.689 3.45387L2.86919 11.4304L7.67387 12.7448L10.6322 7.375C10.8592 6.96298 11.3511 6.79864 11.731 7.00793C12.111 7.21723 12.2349 7.72091 12.0079 8.13293L9.04965 13.5028Z" fill="#F4D35E"/>
</svg>
