<svg width="42" height="41" viewBox="0 0 42 41" fill="none" xmlns="http://www.w3.org/2000/svg">
<circle cx="20.8231" cy="20.5" r="20" stroke="#EFF7FF"/>
<path d="M21.3418 20.6486L21.3415 20.6486C19.879 20.5382 18.5083 20.8329 17.2281 21.5177L17.2274 21.5181C16.0356 22.1535 15.0959 23.0449 14.4182 24.1877L14.4172 24.1894L14.4172 24.1894C13.742 25.3178 13.405 26.5279 13.4411 27.819L13.4411 27.8198C13.4586 28.4799 14.0831 29.1417 14.7665 29.2078L15.0834 29.2384H26.4937L26.4937 29.2383L26.8139 29.2077C27.5005 29.1421 28.1202 28.4818 28.1388 27.8027C28.1566 26.8695 27.9764 25.9691 27.6167 25.0978C27.1429 23.9579 26.4166 22.9933 25.4295 22.224L21.3418 20.6486ZM21.3418 20.6486C22.8783 20.7635 24.2355 21.2959 25.4294 22.224L21.3418 20.6486Z" stroke="#EFF7FF"/>
<path d="M20.8165 12.0646L20.8166 12.0646C22.7694 12.0938 24.303 13.6301 24.2825 15.4304C24.2569 17.3045 22.6913 18.8148 20.7525 18.79C18.8046 18.765 17.2626 17.224 17.2877 15.4249L17.2877 15.4247C17.313 13.5502 18.8884 12.0357 20.8165 12.0646Z" stroke="#EFF7FF"/>
</svg>
