<svg width="22" height="21" viewBox="0 0 22 21" fill="none" xmlns="http://www.w3.org/2000/svg">
<path fill-rule="evenodd" clip-rule="evenodd" d="M9.00301 2.16659C5.55123 2.16659 2.75301 4.96481 2.75301 8.41659C2.75301 11.8684 5.55123 14.6666 9.00301 14.6666C12.4548 14.6666 15.253 11.8684 15.253 8.41659C15.253 4.96481 12.4548 2.16659 9.00301 2.16659ZM0.669678 8.41659C0.669678 3.81421 4.40064 0.083252 9.00301 0.083252C13.6054 0.083252 17.3363 3.81421 17.3363 8.41659C17.3363 10.3423 16.6831 12.1155 15.5862 13.5266L21.1979 19.1383C21.6047 19.5451 21.6047 20.2047 21.1979 20.6115C20.7911 21.0183 20.1316 21.0183 19.7248 20.6115L14.1131 14.9998C12.7019 16.0967 10.9288 16.7499 9.00301 16.7499C4.40064 16.7499 0.669678 13.019 0.669678 8.41659Z" fill="#EFF7FF" fill-opacity="0.75"/>
</svg>
